# xmcd
#
# Track frame offsets: 
#        150
#        14340
#        25842
#        36925
#        47697
#        61315
#        73130
#        87910
#        102315
#        114787
#        128300
#        139725
#        153125
#        166750
#        173885
#        186920
#        199540
#        213257
#        226882
#        238852
#
# Disc length: 3415 seconds
#
# Revision: 4
# Processed by: cddbd v1.5.2PL0 Copyright (c) Steve Scherf et al.
# Submitted via: ExactAudioCopy v0.99pb5
#
DISCID=000d5514
DTITLE=Various Artist - Koa Hiatamadl
DYEAR=1900
DGENRE=Folk
TTITLE0=Die Jungen Klostertaler - Koa Hiatamadl
TTITLE1=D'Feldberger Spitzbuebe - Im alten Schulhaus
TTITLE2=Die Stiefingtaler - Amore Signorina
TTITLE3=Zillertaler Haderlumpen - I Bin a Hoderlump
TTITLE4=Schilcher Buam - Ich bin a Gentleman
TTITLE5=Sonnwend Buam - Wir machen eine Almpartei
TTITLE6=Original Fössl Trio - Thaulandsong
TTITLE7=Alpensound - Pfui Deife
TTITLE8=Original 4 Tiroler Buam - Die ersten Falten 
TTITLE9=Original Schwarzwälder Stockmihli Musikanten - Der Schwarzwald
TTITLE9=Casanova
TTITLE10=Kaiserwälder Musketiere - Ich fahr' net nach Amerika
TTITLE11=Original Drachselrieder Musikanten - Marita auf Mallorca
TTITLE12=Zillertaler Schürzenjäger - Logo, Logo
TTITLE13=Zillertaler Gipfelstürmer - A Tiroler Knödlsuppen
TTITLE14=Hubert Urach - Der Elefant
TTITLE15=Toni Frank - Ja so hätt mas gern
TTITLE16=Vreni und Rudi - Milch und Brot
TTITLE17=Original Zillertaler - Uamol auffi, uamol obi
TTITLE18=Kapruner Spatzen - Der Papa der passt auf
TTITLE19=Die Jungen Klostertaler - Her mit meinen Hennen (Goggala)
EXTD=
EXTT0=
EXTT1=
EXTT2=
EXTT3=
EXTT4=
EXTT5=
EXTT6=
EXTT7=
EXTT8=
EXTT9=
EXTT10=
EXTT11=
EXTT12=
EXTT13=
EXTT14=
EXTT15=
EXTT16=
EXTT17=
EXTT18=
EXTT19=
PLAYORDER=
